<svg version="1.1" xmlns="http://www.w3.org/2000/svg" viewBox="-307.2 -1054.7 6200.57431118324 2623.6"><desc>Created with Snap</desc><defs></defs><g><rect x="-307.2" y="-1054.7" width="6200.57431118324" height="2623.6" fill="#34f6f2" style=""></rect><g transform="matrix(28.3982,0,0,28.3982,3755.792,-1162.7951)"><path fill="#292929" d="M62.716,30.785l-7.992-8.143c-0.211-0.215-0.412-0.633-0.448-0.933l-0.782-6.542  c-0.036-0.301-0.31-0.543-0.612-0.543H46.97c-0.302,0-0.575,0.242-0.611,0.543l-0.8,6.7c-0.036,0.3-0.236,0.718-0.448,0.933  l-7.837,7.986c-0.212,0.217-0.389,0.636-0.396,0.938l-0.021,0.813l-0.002,0.099l-1.31,52.192c-0.008,0.302,0.231,0.547,0.532,0.547  l27.844-0.002c0.303,0,0.541-0.245,0.533-0.547l-1.342-53.104C63.105,31.421,62.928,31.001,62.716,30.785z M47.549,21.348  l0.51-4.266c0.034-0.3,0.31-0.543,0.61-0.543h2.514c0.302,0,0.576,0.243,0.611,0.543l0.511,4.265  c0.036,0.301-0.181,0.543-0.482,0.543h-1.526l-2.265,0.001C47.729,21.891,47.513,21.647,47.549,21.348z M40.501,30.231l5.923-6.036  c0.213-0.215,0.629-0.39,0.931-0.39l0.855-0.001h4.425c0.302,0,0.719,0.175,0.93,0.39l5.926,6.036  c0.211,0.217,0.138,0.391-0.164,0.391H40.665C40.363,30.621,40.29,30.447,40.501,30.231z M61.958,83.459l-23.917,0.002  c-0.303,0-0.542-0.244-0.534-0.546l1.251-49.832c0.008-0.302,0.259-0.546,0.561-0.546l20.794-0.002h0.559  c0.303,0,0.555,0.245,0.563,0.547l1.258,49.831C62.5,83.215,62.26,83.459,61.958,83.459z" style=""></path><path fill="#292929" d="M49.926,44.395c-2.614,0-5.034,1.654-6.814,4.658c-1.686,2.848-2.614,6.612-2.614,10.601  c0.002,8.26,3.861,14.791,8.884,15.234c0.302,0.026,0.547-0.19,0.547-0.455c0,0.265,0.245,0.481,0.546,0.455  c2.404-0.215,4.613-1.841,6.269-4.635c1.686-2.847,2.614-6.611,2.614-10.601c-0.001-3.989-0.931-7.754-2.616-10.6  C54.96,46.049,52.541,44.395,49.926,44.395z" style=""></path><desc>Created with Snap</desc><defs></defs></g><g><g transform="matrix(0.5,0,0,-0.5,0,0)"><path d="M1231 776L1231 688L836 688L836 131Q836 54 795 19Q755 -16 672 -16Q588 -16 548 19Q508 54 508 131L508 688L352 688L352 776L508 776L508 1405Q476 1402 434 1393Q393 1385 349 1369Q306 1354 264 1333Q222 1312 189 1284Q156 1256 135 1221Q115 1187 115 1147Q115 1115 123 1096Q132 1077 143 1067Q154 1058 165 1055Q177 1053 182 1053Q207 1053 223 1061Q239 1070 252 1079Q265 1089 276 1097Q288 1106 303 1106Q315 1106 328 1100Q342 1095 353 1083Q365 1071 373 1051Q381 1032 381 1004Q381 964 365 934Q350 905 325 886Q301 867 269 857Q238 848 207 848Q159 848 120 864Q82 881 55 910Q28 939 14 977Q0 1016 0 1061Q0 1178 64 1260Q129 1342 241 1394Q353 1447 502 1471Q651 1495 821 1495Q890 1495 965 1493Q1040 1492 1106 1489Q1173 1486 1224 1482Q1275 1478 1296 1473Q1316 1468 1328 1462Q1340 1456 1346 1448Q1352 1440 1354 1429Q1356 1419 1356 1405Q1356 1393 1353 1378Q1350 1364 1344 1351Q1338 1339 1329 1330Q1320 1321 1307 1321Q1299 1321 1289 1328Q1280 1335 1262 1346Q1245 1357 1215 1369Q1186 1381 1136 1392Q1087 1403 1013 1410Q940 1417 836 1417L836 776L1231 776ZM1740 827Q1778 885 1821 932Q1839 952 1860 971Q1881 990 1903 1005Q1926 1020 1950 1029Q1974 1038 1998 1038Q2049 1038 2078 1007Q2107 977 2107 922Q2107 888 2101 856Q2096 825 2080 780L2052 780Q2046 811 2024 831Q2002 852 1960 852Q1929 852 1899 840Q1869 829 1840 812Q1812 795 1786 775Q1761 755 1740 737L1740 88Q1740 75 1736 57Q1732 39 1716 23Q1701 7 1670 -5Q1640 -16 1587 -16Q1534 -16 1503 -4Q1473 9 1457 26Q1441 43 1437 61Q1433 79 1433 90L1433 862Q1433 891 1419 912Q1406 934 1374 934Q1357 934 1345 928Q1333 922 1319 911L1298 936Q1321 955 1349 973Q1378 992 1411 1006Q1444 1020 1482 1029Q1520 1038 1562 1038Q1605 1038 1635 1026Q1666 1015 1685 996Q1705 978 1716 955Q1727 932 1732 908Q1738 885 1739 863Q1740 842 1740 827ZM2684 274L2684 518Q2684 543 2668 556Q2652 569 2627 569Q2592 569 2560 553Q2529 537 2505 506Q2481 475 2467 429Q2453 384 2453 324Q2453 266 2461 228Q2470 190 2484 167Q2499 145 2518 136Q2537 127 2558 127Q2584 127 2607 140Q2630 154 2647 175Q2664 196 2674 222Q2684 248 2684 274ZM2525 956Q2491 956 2462 948Q2433 940 2412 928Q2391 916 2379 901Q2367 887 2367 874Q2367 859 2382 852Q2398 846 2417 837Q2436 829 2451 813Q2467 798 2467 766Q2467 745 2458 727Q2450 710 2435 696Q2421 683 2401 675Q2382 668 2361 668Q2305 668 2270 706Q2236 744 2236 807Q2236 868 2268 911Q2300 955 2351 983Q2403 1011 2468 1024Q2533 1038 2598 1038Q2676 1038 2747 1021Q2818 1004 2872 967Q2927 930 2959 873Q2992 816 2992 735L2992 170Q2992 161 2993 150Q2994 139 2998 130Q3002 121 3010 115Q3018 109 3033 109Q3051 109 3066 122Q3082 136 3094 150L3119 129Q3104 108 3083 83Q3062 58 3032 36Q3002 14 2962 -1Q2922 -16 2871 -16Q2808 -16 2759 21Q2710 59 2695 137Q2663 94 2628 65Q2594 36 2558 18Q2522 0 2485 -8Q2449 -16 2412 -16Q2364 -16 2319 -1Q2274 14 2238 46Q2203 79 2181 131Q2160 183 2160 258Q2160 349 2196 407Q2232 465 2290 504Q2349 544 2423 572Q2498 600 2576 631Q2634 654 2660 699Q2687 745 2687 793Q2687 867 2643 911Q2600 956 2525 956ZM3842 498Q3842 624 3830 699Q3819 775 3800 814Q3781 854 3758 866Q3735 879 3711 879Q3682 879 3659 863Q3637 848 3620 828Q3604 808 3592 788Q3581 768 3573 758L3573 90Q3573 77 3569 58Q3565 40 3549 23Q3534 7 3503 -5Q3473 -16 3420 -16Q3367 -16 3336 -4Q3306 9 3290 26Q3274 43 3270 61Q3266 79 3266 90L3266 862Q3266 891 3252 912Q3239 934 3207 934Q3190 934 3178 928Q3166 922 3152 911L3131 936Q3154 955 3182 973Q3211 992 3244 1006Q3277 1020 3315 1029Q3353 1038 3395 1038Q3460 1038 3496 1016Q3532 995 3549 965Q3566 935 3569 902Q3573 870 3573 848Q3610 901 3657 943Q3676 961 3699 978Q3723 995 3749 1008Q3776 1022 3805 1030Q3835 1038 3866 1038Q3934 1038 3986 1012Q4039 986 4075 925Q4111 864 4130 763Q4149 663 4149 514Q4149 369 4123 262Q4097 155 4055 80Q4013 5 3960 -43Q3907 -90 3853 -117Q3799 -144 3749 -155Q3700 -165 3664 -166L3653 -125Q3683 -118 3708 -103Q3734 -88 3755 -59Q3776 -30 3792 14Q3808 59 3819 126Q3831 193 3836 284Q3842 376 3842 498ZM4835 952L4680 952L4680 213Q4680 160 4700 139Q4720 119 4755 119Q4782 119 4803 134Q4824 149 4839 168Q4857 189 4870 217L4901 203Q4886 171 4865 133Q4845 95 4811 62Q4777 30 4725 8Q4674 -14 4596 -14Q4552 -14 4511 -1Q4471 12 4439 40Q4408 68 4389 110Q4370 152 4370 211L4370 952L4258 952L4258 1024Q4286 1024 4336 1038Q4386 1053 4438 1087Q4491 1121 4536 1178Q4581 1235 4600 1319L4680 1319L4680 1024L4843 1024Q4923 1024 4923 1051Q4923 1061 4913 1064Q4903 1068 4890 1073Q4878 1079 4868 1089Q4858 1099 4858 1122Q4858 1150 4875 1166Q4893 1182 4921 1182Q4939 1182 4952 1174Q4966 1167 4975 1154Q4984 1142 4988 1126Q4993 1110 4993 1094Q4993 1029 4955 990Q4918 952 4835 952ZM5496 274L5496 518Q5496 543 5480 556Q5464 569 5439 569Q5404 569 5372 553Q5341 537 5317 506Q5293 475 5279 429Q5265 384 5265 324Q5265 266 5273 228Q5282 190 5296 167Q5311 145 5330 136Q5349 127 5370 127Q5396 127 5419 140Q5442 154 5459 175Q5476 196 5486 222Q5496 248 5496 274ZM5337 956Q5303 956 5274 948Q5245 940 5224 928Q5203 916 5191 901Q5179 887 5179 874Q5179 859 5194 852Q5210 846 5229 837Q5248 829 5263 813Q5279 798 5279 766Q5279 745 5270 727Q5262 710 5247 696Q5233 683 5213 675Q5194 668 5173 668Q5117 668 5082 706Q5048 744 5048 807Q5048 868 5080 911Q5112 955 5163 983Q5215 1011 5280 1024Q5345 1038 5410 1038Q5488 1038 5559 1021Q5630 1004 5684 967Q5739 930 5771 873Q5804 816 5804 735L5804 170Q5804 161 5805 150Q5806 139 5810 130Q5814 121 5822 115Q5830 109 5845 109Q5863 109 5878 122Q5894 136 5906 150L5931 129Q5916 108 5895 83Q5874 58 5844 36Q5814 14 5774 -1Q5734 -16 5683 -16Q5620 -16 5571 21Q5522 59 5507 137Q5475 94 5440 65Q5406 36 5370 18Q5334 0 5297 -8Q5261 -16 5224 -16Q5176 -16 5131 -1Q5086 14 5050 46Q5015 79 4993 131Q4972 183 4972 258Q4972 349 5008 407Q5044 465 5102 504Q5161 544 5235 572Q5310 600 5388 631Q5446 654 5472 699Q5499 745 5499 793Q5499 867 5455 911Q5412 956 5337 956ZM6387 958Q6364 958 6343 952Q6323 946 6307 932Q6291 919 6282 898Q6273 878 6273 850Q6273 811 6301 772Q6330 734 6372 692Q6415 651 6464 606Q6514 562 6556 512Q6599 463 6627 407Q6656 351 6656 287Q6656 215 6631 159Q6607 103 6561 64Q6516 25 6451 4Q6387 -16 6308 -16Q6239 -16 6183 3Q6127 23 6083 51Q6040 80 6009 112Q5978 144 5961 170L5996 195Q6009 180 6029 162Q6049 145 6073 130Q6098 115 6126 105Q6154 96 6183 96Q6255 96 6301 130Q6347 165 6347 233Q6347 271 6322 311Q6297 352 6259 395Q6221 438 6177 484Q6133 530 6095 579Q6057 628 6032 680Q6007 732 6007 788Q6007 851 6032 898Q6058 945 6100 976Q6143 1007 6197 1022Q6252 1038 6310 1038Q6377 1038 6432 1026Q6487 1014 6526 989Q6566 965 6587 928Q6609 891 6609 842Q6609 804 6584 776Q6559 748 6514 748Q6471 748 6448 766Q6426 785 6426 817Q6426 838 6436 850Q6447 862 6460 869Q6473 877 6483 882Q6494 888 6494 897Q6494 925 6464 941Q6434 958 6387 958ZM7321 952L7166 952L7166 213Q7166 160 7186 139Q7206 119 7241 119Q7268 119 7289 134Q7310 149 7325 168Q7343 189 7356 217L7387 203Q7372 171 7351 133Q7331 95 7297 62Q7263 30 7211 8Q7160 -14 7082 -14Q7038 -14 6997 -1Q6957 12 6925 40Q6894 68 6875 110Q6856 152 6856 211L6856 952L6744 952L6744 1024Q6772 1024 6822 1038Q6872 1053 6924 1087Q6977 1121 7022 1178Q7067 1235 7086 1319L7166 1319L7166 1024L7329 1024Q7409 1024 7409 1051Q7409 1061 7399 1064Q7389 1068 7376 1073Q7364 1079 7354 1089Q7344 1099 7344 1122Q7344 1150 7361 1166Q7379 1182 7407 1182Q7425 1182 7438 1174Q7452 1167 7461 1154Q7470 1142 7474 1126Q7479 1110 7479 1094Q7479 1029 7441 990Q7404 952 7321 952ZM7851 872L7851 90Q7851 77 7846 58Q7842 40 7825 23Q7809 7 7778 -5Q7747 -16 7694 -16Q7641 -16 7611 -4Q7581 9 7566 26Q7551 43 7547 61Q7544 79 7544 90L7544 862Q7544 891 7530 912Q7517 934 7485 934Q7468 934 7456 928Q7444 922 7430 911L7409 936Q7432 955 7460 973Q7489 992 7522 1006Q7555 1020 7593 1029Q7631 1038 7673 1038Q7738 1038 7774 1020Q7810 1003 7827 977Q7844 952 7847 923Q7851 894 7851 872ZM7513 1266Q7513 1294 7525 1319Q7538 1345 7560 1364Q7583 1383 7612 1394Q7642 1405 7677 1405Q7711 1405 7740 1394Q7770 1383 7792 1364Q7814 1345 7826 1319Q7839 1294 7839 1266Q7839 1237 7826 1212Q7814 1187 7792 1168Q7770 1150 7740 1139Q7711 1128 7677 1128Q7642 1128 7612 1139Q7583 1150 7560 1168Q7538 1187 7525 1212Q7513 1237 7513 1266ZM8738 692Q8707 692 8686 701Q8665 711 8652 727Q8639 743 8633 762Q8627 782 8627 803Q8627 830 8630 855Q8634 880 8631 900Q8629 920 8616 932Q8603 944 8570 944Q8535 944 8496 924Q8457 904 8425 861Q8393 818 8372 750Q8351 683 8351 588Q8351 483 8370 396Q8390 310 8429 249Q8468 188 8526 154Q8584 121 8662 121Q8697 121 8728 129Q8760 137 8788 151Q8816 165 8841 183Q8867 202 8891 223L8916 199Q8893 168 8857 131Q8821 94 8770 61Q8719 29 8651 7Q8583 -14 8496 -14Q8409 -14 8326 19Q8244 53 8180 117Q8116 181 8077 272Q8039 364 8039 481Q8039 572 8062 648Q8085 725 8124 787Q8164 849 8216 896Q8269 943 8327 974Q8385 1006 8445 1022Q8506 1038 8562 1038Q8636 1038 8691 1021Q8746 1004 8782 976Q8819 948 8837 911Q8855 875 8855 836Q8855 807 8847 780Q8840 754 8825 734Q8811 715 8789 703Q8767 692 8738 692Z" fill="#292929" style=""></path></g></g><g transform="matrix(1,0,0,1,446,1137.7)"><g transform="matrix(0.5,0,0,-0.5,0,0)"><path d="M768 1409Q741 1409 705 1398Q669 1387 631 1356Q594 1326 558 1271Q522 1216 493 1128Q465 1041 447 916Q430 791 430 621Q430 459 447 340Q465 221 494 137Q524 54 562 1Q600 -52 642 -82Q684 -111 726 -122Q768 -133 805 -133Q844 -133 884 -123Q924 -113 962 -94Q1001 -75 1036 -48Q1072 -21 1102 14L1147 -31Q1117 -68 1075 -107Q1033 -145 977 -177Q922 -208 853 -228Q784 -248 700 -248Q569 -248 456 -198Q344 -148 260 -43Q177 63 129 228Q82 393 82 623Q82 839 132 1002Q182 1165 268 1274Q354 1384 470 1439Q586 1495 717 1495Q804 1495 875 1478Q947 1462 999 1430Q1051 1399 1079 1352Q1108 1306 1108 1247Q1108 1220 1099 1190Q1090 1161 1071 1136Q1053 1112 1026 1096Q999 1081 963 1081Q931 1081 913 1095Q896 1109 887 1132Q879 1155 876 1184Q874 1214 873 1245Q872 1276 868 1305Q865 1335 854 1358Q844 1381 824 1395Q804 1409 768 1409ZM1560 827Q1598 885 1641 932Q1659 952 1680 971Q1701 990 1723 1005Q1746 1020 1770 1029Q1794 1038 1818 1038Q1869 1038 1898 1007Q1927 977 1927 922Q1927 888 1921 856Q1916 825 1900 780L1872 780Q1866 811 1844 831Q1822 852 1780 852Q1749 852 1719 840Q1689 829 1660 812Q1632 795 1606 775Q1581 755 1560 737L1560 88Q1560 75 1556 57Q1552 39 1536 23Q1521 7 1490 -5Q1460 -16 1407 -16Q1354 -16 1323 -4Q1293 9 1277 26Q1261 43 1257 61Q1253 79 1253 90L1253 862Q1253 891 1239 912Q1226 934 1194 934Q1177 934 1165 928Q1153 922 1139 911L1118 936Q1141 955 1169 973Q1198 992 1231 1006Q1264 1020 1302 1029Q1340 1038 1382 1038Q1425 1038 1455 1026Q1486 1015 1505 996Q1525 978 1536 955Q1547 932 1552 908Q1558 885 1559 863Q1560 842 1560 827ZM2707 692L2312 459Q2312 427 2321 389Q2331 352 2349 314Q2367 276 2393 241Q2420 207 2454 180Q2489 153 2531 137Q2573 121 2623 121Q2658 121 2688 129Q2718 137 2744 151Q2770 165 2794 183Q2818 202 2842 223L2867 199Q2844 168 2808 131Q2772 94 2721 61Q2670 29 2602 7Q2534 -14 2447 -14Q2360 -14 2277 17Q2195 49 2131 112Q2067 175 2028 269Q1990 363 1990 489Q1990 580 2013 656Q2036 732 2075 793Q2115 854 2167 900Q2220 946 2278 976Q2336 1007 2396 1022Q2457 1038 2513 1038Q2587 1038 2642 1022Q2697 1006 2733 979Q2770 952 2788 916Q2806 881 2806 842Q2806 795 2779 757Q2752 720 2707 692ZM2302 541L2513 662Q2526 670 2534 677Q2543 685 2548 695Q2553 706 2555 721Q2558 737 2558 760Q2558 785 2552 815Q2547 846 2534 873Q2521 900 2501 918Q2481 936 2453 936Q2417 936 2391 914Q2366 893 2349 859Q2333 825 2323 781Q2314 738 2309 694Q2304 650 2303 609Q2302 569 2302 541ZM3452 274L3452 518Q3452 543 3436 556Q3420 569 3395 569Q3360 569 3328 553Q3297 537 3273 506Q3249 475 3235 429Q3221 384 3221 324Q3221 266 3229 228Q3238 190 3252 167Q3267 145 3286 136Q3305 127 3326 127Q3352 127 3375 140Q3398 154 3415 175Q3432 196 3442 222Q3452 248 3452 274ZM3293 956Q3259 956 3230 948Q3201 940 3180 928Q3159 916 3147 901Q3135 887 3135 874Q3135 859 3150 852Q3166 846 3185 837Q3204 829 3219 813Q3235 798 3235 766Q3235 745 3226 727Q3218 710 3203 696Q3189 683 3169 675Q3150 668 3129 668Q3073 668 3038 706Q3004 744 3004 807Q3004 868 3036 911Q3068 955 3119 983Q3171 1011 3236 1024Q3301 1038 3366 1038Q3444 1038 3515 1021Q3586 1004 3640 967Q3695 930 3727 873Q3760 816 3760 735L3760 170Q3760 161 3761 150Q3762 139 3766 130Q3770 121 3778 115Q3786 109 3801 109Q3819 109 3834 122Q3850 136 3862 150L3887 129Q3872 108 3851 83Q3830 58 3800 36Q3770 14 3730 -1Q3690 -16 3639 -16Q3576 -16 3527 21Q3478 59 3463 137Q3431 94 3396 65Q3362 36 3326 18Q3290 0 3253 -8Q3217 -16 3180 -16Q3132 -16 3087 -1Q3042 14 3006 46Q2971 79 2949 131Q2928 183 2928 258Q2928 349 2964 407Q3000 465 3058 504Q3117 544 3191 572Q3266 600 3344 631Q3402 654 3428 699Q3455 745 3455 793Q3455 867 3411 911Q3368 956 3293 956ZM4501 952L4346 952L4346 213Q4346 160 4366 139Q4386 119 4421 119Q4448 119 4469 134Q4490 149 4505 168Q4523 189 4536 217L4567 203Q4552 171 4531 133Q4511 95 4477 62Q4443 30 4391 8Q4340 -14 4262 -14Q4218 -14 4177 -1Q4137 12 4105 40Q4074 68 4055 110Q4036 152 4036 211L4036 952L3924 952L3924 1024Q3952 1024 4002 1038Q4052 1053 4104 1087Q4157 1121 4202 1178Q4247 1235 4266 1319L4346 1319L4346 1024L4509 1024Q4589 1024 4589 1051Q4589 1061 4579 1064Q4569 1068 4556 1073Q4544 1079 4534 1089Q4524 1099 4524 1122Q4524 1150 4541 1166Q4559 1182 4587 1182Q4605 1182 4618 1174Q4632 1167 4641 1154Q4650 1142 4654 1126Q4659 1110 4659 1094Q4659 1029 4621 990Q4584 952 4501 952ZM5031 872L5031 90Q5031 77 5026 58Q5022 40 5005 23Q4989 7 4958 -5Q4927 -16 4874 -16Q4821 -16 4791 -4Q4761 9 4746 26Q4731 43 4727 61Q4724 79 4724 90L4724 862Q4724 891 4710 912Q4697 934 4665 934Q4648 934 4636 928Q4624 922 4610 911L4589 936Q4612 955 4640 973Q4669 992 4702 1006Q4735 1020 4773 1029Q4811 1038 4853 1038Q4918 1038 4954 1020Q4990 1003 5007 977Q5024 952 5027 923Q5031 894 5031 872ZM4693 1266Q4693 1294 4705 1319Q4718 1345 4740 1364Q4763 1383 4792 1394Q4822 1405 4857 1405Q4891 1405 4920 1394Q4950 1383 4972 1364Q4994 1345 5006 1319Q5019 1294 5019 1266Q5019 1237 5006 1212Q4994 1187 4972 1168Q4950 1150 4920 1139Q4891 1128 4857 1128Q4822 1128 4792 1139Q4763 1150 4740 1168Q4718 1187 4705 1212Q4693 1237 4693 1266ZM5219 512Q5219 643 5257 741Q5295 840 5358 906Q5422 972 5506 1005Q5590 1038 5682 1038Q5774 1038 5858 1007Q5942 977 6005 914Q6069 851 6107 754Q6145 658 6145 526Q6145 395 6107 294Q6069 193 6005 124Q5942 55 5858 19Q5774 -16 5682 -16Q5590 -16 5506 17Q5422 51 5358 117Q5295 183 5257 282Q5219 381 5219 512ZM5834 522Q5834 602 5828 676Q5823 751 5807 809Q5791 867 5761 901Q5731 936 5682 936Q5633 936 5603 899Q5573 863 5557 803Q5541 744 5536 668Q5531 592 5531 512Q5531 432 5536 355Q5541 279 5557 219Q5573 159 5603 122Q5633 86 5682 86Q5731 86 5761 124Q5791 162 5807 224Q5823 286 5828 364Q5834 442 5834 522ZM6920 498Q6920 624 6908 699Q6897 775 6878 814Q6859 854 6836 866Q6813 879 6789 879Q6760 879 6737 863Q6715 848 6698 828Q6682 808 6670 788Q6659 768 6651 758L6651 90Q6651 77 6647 58Q6643 40 6627 23Q6612 7 6581 -5Q6551 -16 6498 -16Q6445 -16 6414 -4Q6384 9 6368 26Q6352 43 6348 61Q6344 79 6344 90L6344 862Q6344 891 6330 912Q6317 934 6285 934Q6268 934 6256 928Q6244 922 6230 911L6209 936Q6232 955 6260 973Q6289 992 6322 1006Q6355 1020 6393 1029Q6431 1038 6473 1038Q6538 1038 6574 1016Q6610 995 6627 965Q6644 935 6647 902Q6651 870 6651 848Q6688 901 6735 943Q6754 961 6777 978Q6801 995 6827 1008Q6854 1022 6883 1030Q6913 1038 6944 1038Q7012 1038 7064 1012Q7117 986 7153 925Q7189 864 7208 763Q7227 663 7227 514Q7227 369 7201 262Q7175 155 7133 80Q7091 5 7038 -43Q6985 -90 6931 -117Q6877 -144 6827 -155Q6778 -165 6742 -166L6731 -125Q6761 -118 6786 -103Q6812 -88 6833 -59Q6854 -30 6870 14Q6886 59 6897 126Q6909 193 6914 284Q6920 376 6920 498ZM7755 958Q7732 958 7711 952Q7691 946 7675 932Q7659 919 7650 898Q7641 878 7641 850Q7641 811 7669 772Q7698 734 7740 692Q7783 651 7832 606Q7882 562 7924 512Q7967 463 7995 407Q8024 351 8024 287Q8024 215 7999 159Q7975 103 7929 64Q7884 25 7819 4Q7755 -16 7676 -16Q7607 -16 7551 3Q7495 23 7451 51Q7408 80 7377 112Q7346 144 7329 170L7364 195Q7377 180 7397 162Q7417 145 7441 130Q7466 115 7494 105Q7522 96 7551 96Q7623 96 7669 130Q7715 165 7715 233Q7715 271 7690 311Q7665 352 7627 395Q7589 438 7545 484Q7501 530 7463 579Q7425 628 7400 680Q7375 732 7375 788Q7375 851 7400 898Q7426 945 7468 976Q7511 1007 7565 1022Q7620 1038 7678 1038Q7745 1038 7800 1026Q7855 1014 7894 989Q7934 965 7955 928Q7977 891 7977 842Q7977 804 7952 776Q7927 748 7882 748Q7839 748 7816 766Q7794 785 7794 817Q7794 838 7804 850Q7815 862 7828 869Q7841 877 7851 882Q7862 888 7862 897Q7862 925 7832 941Q7802 958 7755 958Z" fill="#292929" style=""></path></g></g></g></svg>